<?xml version="1.0" encoding="UTF-8" standalone="no"?>
<!-- Generator: Adobe Illustrator 15.1.0, SVG Export Plug-In . SVG Version: 6.00 Build 0)  -->

<svg
   xmlns:dc="http://purl.org/dc/elements/1.1/"
   xmlns:cc="http://creativecommons.org/ns#"
   xmlns:rdf="http://www.w3.org/1999/02/22-rdf-syntax-ns#"
   xmlns:svg="http://www.w3.org/2000/svg"
   xmlns="http://www.w3.org/2000/svg"
   xmlns:sodipodi="http://sodipodi.sourceforge.net/DTD/sodipodi-0.dtd"
   xmlns:inkscape="http://www.inkscape.org/namespaces/inkscape"
   version="1.1"
   x="0px"
   y="0px"
   width="17"
   height="21"
   viewBox="0 0 17 21"
   xml:space="preserve"
   id="svg2"
   inkscape:version="0.48.3.1 r9886"
   sodipodi:docname="page.svg"><metadata
   id="metadata12"><rdf:RDF><cc:Work
       rdf:about=""><dc:format>image/svg+xml</dc:format><dc:type
         rdf:resource="http://purl.org/dc/dcmitype/StillImage" /></cc:Work></rdf:RDF></metadata><defs
   id="defs10" /><sodipodi:namedview
   pagecolor="#ffffff"
   bordercolor="#666666"
   borderopacity="1"
   objecttolerance="10"
   gridtolerance="10"
   guidetolerance="10"
   inkscape:pageopacity="0"
   inkscape:pageshadow="2"
   inkscape:window-width="794"
   inkscape:window-height="585"
   id="namedview8"
   showgrid="false"
   inkscape:zoom="16.000001"
   inkscape:cx="5.5166576"
   inkscape:cy="10.241557"
   inkscape:window-x="445"
   inkscape:window-y="58"
   inkscape:window-maximized="0"
   inkscape:current-layer="svg2" />
<g
   id="Layer_1"
   transform="translate(0,-11)">
</g>

<g
   id="book"
   transform="matrix(0.51985168,0,0,-0.58458382,0.00365905,18.706436)">
	<path
   style="fill:#4e4e50"
   d="M 0,4.4180387 0,31.946644 c 9.3329994,0.07295 18.666776,0.01241 28,-0.0013 L 28,4.4089973 z"
   id="path6"
   inkscape:connector-curvature="0"
   sodipodi:nodetypes="ccccc" />
</g><g
   transform="matrix(0.51985168,0,0,0.08571694,0.00365905,16.040331)"
   id="g2989">
	<path
   sodipodi:nodetypes="cccccccccc"
   inkscape:connector-curvature="0"
   id="path2991"
   d="M 0,-4.1513186 0,32.001258 C 9.3329994,32.074206 18.666776,32.013672 28,32 l 0,-36.16036 z m 26.083923,27.6174066 -24.4264741,0 0,-26.4653618 24.4264741,0 z"
   style="fill:#4e4e50" />
</g><path
   style="fill:#4e4e50;fill-opacity:1;stroke:none"
   d="m 4.9097593,16.849828 5.1335357,0 0,3.909404 -2.5667681,-2.009507 -2.5667676,1.972971 z"
   id="path2993"
   inkscape:connector-curvature="0"
   sodipodi:nodetypes="cccccc" /><path
   sodipodi:type="star"
   style="fill:#ffffff;fill-opacity:1;stroke:none"
   id="path3074"
   sodipodi:sides="5"
   sodipodi:cx="6.2499995"
   sodipodi:cy="4.8750005"
   sodipodi:r1="7.8982787"
   sodipodi:r2="3.2983212"
   sodipodi:arg1="0.78539816"
   sodipodi:arg2="1.3803724"
   inkscape:flatsided="false"
   inkscape:rounded="0"
   inkscape:randomized="0"
   d="M 11.834926,10.459927 6.8742899,8.1137015 2.664256,11.912418 3.3627281,6.4695495 -1.5510383,3.6394375 3.8412773,2.6217849 5.0144365,-2.9260373 7.6485988,1.8878876 13.287417,1.289257 9.5231036,5.2820788 z"
   inkscape:transform-center-x="-0.0015210853"
   inkscape:transform-center-y="-0.57653064"
   transform="matrix(0.75679368,0.12049528,-0.12049528,0.75679368,3.114142,3.6267233)" /></svg>